# Blender 3.4.1
# www.blender.org
mtllib skirt2.mtl
o LSKIRT.001
v 0.234526 -0.543680 -1.128806
v 0.261209 -0.543680 -1.313185
v 0.113348 0.809226 -0.525707
v 0.648649 -0.543680 -0.953131
v 0.305762 0.809226 -0.440615
v 0.743860 -0.543680 -1.113264
v 0.964021 -0.543680 -0.632351
v 1.113265 -0.543680 -0.743860
v 0.450965 0.809226 -0.288366
v 1.132630 -0.543680 -0.215301
v 0.526853 0.809227 -0.092140
v 1.313185 -0.543680 -0.261209
v 1.128806 -0.543679 0.234527
v 0.521872 0.809227 0.118190
v 1.313185 -0.543679 0.261209
v 0.953131 -0.543679 0.648649
v 0.436780 0.809227 0.310603
v 1.113265 -0.543679 0.743860
v 0.632351 -0.543679 0.964022
v 0.284531 0.809227 0.455807
v 0.743860 -0.543679 1.113265
v 0.215301 -0.543679 1.132630
v 0.088305 0.809227 0.531695
v 0.261209 -0.543679 1.313185
v -0.234527 -0.543679 1.128806
v -0.261209 -0.543679 1.313185
v -0.122025 0.809227 0.526713
v -0.648650 -0.543679 0.953131
v -0.743860 -0.543679 1.113265
v -0.314438 0.809227 0.441621
v -0.964021 -0.543679 0.632351
v -1.113264 -0.543679 0.743860
v -0.459642 0.809227 0.289373
v -1.132630 -0.543679 0.215301
v -1.313185 -0.543679 0.261209
v -0.535530 0.809227 0.093147
v -1.128806 -0.543680 -0.234526
v -1.313185 -0.543680 -0.261209
v -0.530548 0.809227 -0.117183
v -0.953131 -0.543680 -0.648650
v -1.113265 -0.543680 -0.743859
v -0.445456 0.809226 -0.309597
v -0.632351 -0.543680 -0.964021
v -0.743860 -0.543680 -1.113264
v -0.293208 0.809226 -0.454800
v -0.215301 -0.543680 -1.132630
v -0.096982 0.809226 -0.530688
v -0.261209 -0.543680 -1.313185
v 0.113348 1.044005 -0.525707
v 0.305762 1.044005 -0.440615
v 0.450965 1.044005 -0.288366
v 0.526853 1.044005 -0.092140
v 0.521872 1.044005 0.118190
v 0.436780 1.044005 0.310603
v 0.284531 1.044005 0.455807
v 0.088305 1.044005 0.531695
v -0.122025 1.044005 0.526713
v -0.314438 1.044005 0.441621
v -0.459642 1.044005 0.289373
v -0.535530 1.044005 0.093147
v -0.530548 1.044005 -0.117183
v -0.445456 1.044005 -0.309597
v -0.293208 1.044005 -0.454801
v -0.096982 1.044005 -0.530688
v 0.173937 0.132773 -0.827256
v 0.187279 0.132773 -0.919446
v 0.247868 -0.543680 -1.220995
v 0.209555 0.809226 -0.483161
v 0.477206 0.132773 -0.696873
v 0.454929 -0.543680 -1.133158
v 0.524811 0.132773 -0.776940
v 0.696254 -0.543680 -1.033198
v 0.378364 0.809226 -0.364491
v 0.707493 0.132773 -0.460359
v 0.853941 -0.543680 -0.872808
v 0.782115 0.132773 -0.516113
v 1.038643 -0.543680 -0.688105
v 0.488909 0.809226 -0.190253
v 0.829741 0.132773 -0.153721
v 1.122947 -0.543680 -0.479580
v 0.920019 0.132773 -0.176675
v 1.222907 -0.543680 -0.238255
v 0.524362 0.809227 0.013025
v 0.825339 0.132774 0.176358
v 1.220995 -0.543679 -0.013341
v 0.917528 0.132774 0.189699
v 1.220995 -0.543679 0.247868
v 0.479326 0.809227 0.214397
v 0.694955 0.132774 0.479626
v 1.133158 -0.543679 0.454929
v 0.775022 0.132774 0.527232
v 1.033198 -0.543679 0.696255
v 0.360655 0.809227 0.383205
v 0.458441 0.132774 0.709914
v 0.872808 -0.543679 0.853941
v 0.514195 0.132774 0.784536
v 0.688105 -0.543679 1.038643
v 0.186418 0.809227 0.493751
v 0.151803 0.132774 0.832162
v 0.479580 -0.543679 1.122947
v 0.174757 0.132774 0.922440
v 0.238255 -0.543679 1.222908
v -0.016860 0.809227 0.529204
v -0.178276 0.132774 0.827760
v 0.013341 -0.543679 1.220996
v -0.191617 0.132774 0.919949
v -0.247868 -0.543679 1.220996
v -0.218232 0.809227 0.484167
v -0.481544 0.132774 0.697376
v -0.454929 -0.543679 1.133158
v -0.529149 0.132774 0.777443
v -0.696255 -0.543679 1.033198
v -0.387040 0.809227 0.365497
v -0.711832 0.132774 0.460862
v -0.853941 -0.543679 0.872808
v -0.786453 0.132774 0.516616
v -1.038643 -0.543679 0.688106
v -0.497586 0.809227 0.191260
v -0.834080 0.132774 0.154224
v -1.122947 -0.543679 0.479581
v -0.924357 0.132774 0.177178
v -1.222907 -0.543679 0.238255
v -0.533039 0.809227 -0.012018
v -0.829677 0.132773 -0.175855
v -1.220995 -0.543679 0.013341
v -0.921867 0.132773 -0.189196
v -1.220995 -0.543680 -0.247868
v -0.488002 0.809226 -0.213390
v -0.699294 0.132773 -0.479123
v -1.133158 -0.543680 -0.454929
v -0.779361 0.132773 -0.526728
v -1.033198 -0.543680 -0.696254
v -0.369332 0.809226 -0.382199
v -0.462780 0.132773 -0.709411
v -0.872808 -0.543680 -0.853940
v -0.518534 0.132773 -0.784032
v -0.688105 -0.543680 -1.038643
v -0.195095 0.809226 -0.492744
v -0.156142 0.132773 -0.831659
v -0.479580 -0.543680 -1.122947
v -0.179095 0.132773 -0.921937
v -0.238255 -0.543680 -1.222907
v 0.008183 0.809226 -0.528198
v -0.013341 -0.543680 -1.220995
v -0.002579 0.132773 -0.874596
v -0.337338 0.132773 -0.807846
v -0.621070 0.132773 -0.618070
v -0.810580 0.132773 -0.334160
v -0.877017 0.132774 0.000662
v -0.810266 0.132774 0.335420
v -0.620490 0.132774 0.619152
v -0.336580 0.132774 0.808663
v -0.001759 0.132774 0.875100
v 0.332999 0.132774 0.808349
v 0.616732 0.132774 0.618573
v 0.806242 0.132774 0.334663
v 0.872679 0.132774 -0.000158
v 0.805928 0.132773 -0.334917
v 0.616152 0.132773 -0.618649
v 0.332242 0.132773 -0.808159
vn -0.6125 0.2838 -0.7377
vn -0.5607 0.3060 -0.7694
vn -0.9894 -0.0248 -0.1432
vn 0.5349 0.4429 -0.7195
vn 0.4567 0.2354 -0.8579
vn 0.6038 0.2461 -0.7582
vn -0.2237 0.3070 -0.9251
vn -0.2837 0.2848 -0.9157
vn -0.8593 -0.0242 -0.5109
vn 0.7693 0.4434 -0.4599
vn 0.7502 0.2357 -0.6178
vn 0.8479 0.2464 -0.4694
vn 0.1471 0.3080 -0.9399
vn 0.0883 0.2859 -0.9542
vn -0.5984 -0.0233 -0.8009
vn 0.8867 0.4436 -0.1305
vn 0.9295 0.2358 -0.2837
vn 0.9630 0.2465 -0.1091
vn 0.4954 0.3090 -0.8119
vn 0.4468 0.2870 -0.8474
vn -0.2464 -0.0221 -0.9689
vn 0.8692 0.4435 0.2188
vn 0.9673 0.2358 0.0936
vn 0.9315 0.2463 0.2678
vn 0.7682 0.3097 -0.5603
vn 0.7371 0.2879 -0.6115
vn 0.1432 -0.0208 -0.9895
vn 0.7195 0.4430 0.5349
vn 0.8579 0.2355 0.4567
vn 0.7581 0.2460 0.6040
vn 0.9241 0.3100 -0.2236
vn 0.9149 0.2884 -0.2824
vn 0.5110 -0.0197 -0.8594
vn 0.4602 0.4422 0.7698
vn 0.6179 0.2351 0.7503
vn 0.4693 0.2455 0.8482
vn 0.9393 0.3100 0.1472
vn 0.9532 0.2886 0.0898
vn 0.8009 -0.0189 -0.5984
vn 0.1306 0.4414 0.8878
vn 0.2837 0.2346 0.9298
vn 0.1090 0.2450 0.9634
vn 0.8115 0.3096 0.4956
vn 0.8462 0.2883 0.4482
vn 0.9690 -0.0185 -0.2464
vn -0.2192 0.4405 0.8706
vn -0.0937 0.2341 0.9677
vn -0.2680 0.2445 0.9319
vn 0.5601 0.3088 0.7688
vn 0.6101 0.2876 0.7383
vn 0.9895 -0.0186 0.1432
vn -0.5359 0.4397 0.7208
vn -0.4569 0.2336 0.8583
vn -0.6043 0.2441 0.7585
vn 0.2232 0.3078 0.9249
vn 0.2811 0.2867 0.9159
vn 0.8594 -0.0191 0.5110
vn -0.7711 0.4392 0.4610
vn -0.7507 0.2333 0.6181
vn -0.8486 0.2438 0.4696
vn -0.1480 0.3068 0.9402
vn -0.0909 0.2856 0.9540
vn 0.5984 -0.0201 0.8009
vn -0.8889 0.4389 0.1308
vn -0.9301 0.2332 0.2838
vn -0.9637 0.2437 0.1091
vn -0.4967 0.3058 0.8122
vn -0.4490 0.2845 0.8470
vn 0.2464 -0.0212 0.9689
vn -0.8713 0.4391 -0.2193
vn -0.9679 0.2332 -0.0937
vn -0.9321 0.2438 -0.2679
vn -0.7699 0.3051 0.5605
vn -0.7390 0.2836 0.6112
vn -0.1432 -0.0225 0.9894
vn -0.7208 0.4396 -0.5359
vn -0.8583 0.2335 -0.4570
vn -0.7586 0.2442 -0.6041
vn -0.9259 0.3047 0.2233
vn -0.9166 0.2830 0.2824
vn -0.5109 -0.0236 0.8593
vn -0.4607 0.4403 -0.7706
vn -0.6180 0.2339 -0.7506
vn -0.4696 0.2446 -0.8483
vn -0.9409 0.3048 -0.1479
vn -0.9550 0.2829 -0.0894
vn -0.8009 -0.0245 0.5984
vn -0.1306 0.4412 -0.8878
vn -0.2837 0.2344 -0.9298
vn -0.1093 0.2451 -0.9633
vn -0.8126 0.3052 -0.4965
vn -0.8482 0.2831 -0.4476
vn -0.9689 -0.0249 0.2463
vn 0.2190 0.4421 -0.8698
vn 0.0937 0.2349 -0.9675
vn 0.2677 0.2457 -0.9317
vn 0.1718 -0.0000 0.9851
vn -0.2183 -0.0000 0.9759
vn -0.1718 -0.0000 -0.9851
vn 0.2183 -0.0000 -0.9759
vn -0.9851 -0.0000 0.1718
vn -0.9759 -0.0000 -0.2183
vn 0.9759 -0.0000 0.2183
vn 0.8181 -0.0000 0.5751
vn -0.5751 -0.0000 0.8181
vn -0.8181 -0.0000 -0.5751
vn 0.5357 -0.0000 0.8444
vn 0.5751 -0.0000 -0.8181
vn 0.8444 -0.0000 -0.5357
vn -0.8444 -0.0000 0.5357
vn -0.5357 -0.0000 -0.8444
vn 0.9851 -0.0000 -0.1718
vn 0.2813 0.4348 -0.8555
vn -0.5460 0.4576 -0.7017
vn -0.6840 0.4143 -0.6005
vn -0.0676 0.4339 -0.8984
vn -0.7734 0.4570 -0.4394
vn -0.8618 0.4138 -0.2933
vn -0.4064 0.4330 -0.8046
vn -0.8829 0.4565 -0.1097
vn -0.9086 0.4136 0.0585
vn -0.6837 0.4322 -0.5880
vn -0.8577 0.4564 0.2368
vn -0.8170 0.4138 0.4015
vn -0.8569 0.4317 -0.2817
vn -0.7014 0.4567 0.5472
vn -0.6011 0.4143 0.6834
vn -0.8996 0.4315 0.0676
vn -0.4383 0.4572 0.7739
vn -0.2938 0.4151 0.8610
vn -0.8052 0.4316 0.4067
vn -0.1085 0.4580 0.8823
vn 0.0581 0.4160 0.9075
vn -0.5881 0.4321 0.6837
vn 0.2373 0.4588 0.8562
vn 0.4009 0.4169 0.8158
vn -0.2816 0.4328 0.8564
vn 0.5466 0.4597 0.6999
vn 0.6824 0.4177 0.5998
vn 0.0676 0.4337 0.8985
vn 0.7725 0.4604 0.4375
vn 0.8599 0.4182 0.2927
vn 0.4061 0.4346 0.8039
vn 0.8808 0.4608 0.1088
vn 0.9064 0.4183 -0.0589
vn 0.6825 0.4354 0.5870
vn 0.8554 0.4609 -0.2362
vn 0.8148 0.4181 -0.4015
vn 0.8549 0.4360 0.2811
vn 0.7002 0.4607 -0.5454
vn 0.5992 0.4176 -0.6831
vn 0.8973 0.4362 -0.0675
vn 0.4386 0.4601 -0.7720
vn 0.2922 0.4168 -0.8607
vn 0.8033 0.4360 -0.4058
vn 0.1100 0.4594 -0.8814
vn -0.0594 0.4159 -0.9075
vn 0.5870 0.4355 -0.6824
vn -0.2357 0.4585 -0.8569
vn -0.4022 0.4150 -0.8161
vt 0.302904 0.713597
vt 0.329751 0.727914
vt 0.464642 0.809602
vt 0.360944 0.432019
vt 0.437603 0.711340
vt 0.350776 0.809602
vt 0.383715 0.429266
vt 0.467852 0.714328
vt 0.561113 0.657737
vt 0.590189 0.648949
vt 0.236910 0.809603
vt 0.403546 0.418062
vt 0.654694 0.560999
vt 0.123044 0.809603
vt 0.417394 0.400080
vt 0.678191 0.541755
vt 0.704135 0.435820
vt 0.723754 0.007893
vt 0.009177 0.809603
vt 0.423106 0.378104
vt 0.718475 0.409028
vt 0.701935 0.301218
vt 0.723754 0.106267
vt 0.419850 0.355495
vt 0.704929 0.270950
vt 0.648395 0.177651
vt 0.723754 0.204640
vt 0.408161 0.335697
vt 0.639577 0.148517
vt 0.551623 0.083946
vt 0.723753 0.303013
vt 0.389819 0.321702
vt 0.532330 0.060397
vt 0.426355 0.034405
vt 0.399537 0.020041
vt 0.723753 0.401387
vt 0.367587 0.315623
vt 0.291699 0.036572
vt 0.261454 0.033582
vt 0.723753 0.499760
vt 0.344825 0.318384
vt 0.168155 0.090081
vt 0.139101 0.098917
vt 0.723753 0.598133
vt 0.325007 0.329581
vt 0.074485 0.186776
vt 0.051055 0.206092
vt 0.723753 0.696507
vt 0.311170 0.347548
vt 0.024948 0.311988
vt 0.010725 0.338835
vt 0.723753 0.794880
vt 0.920106 0.809602
vt 0.305463 0.369506
vt 0.027104 0.446680
vt 0.024251 0.476959
vt 0.806240 0.809602
vt 0.308711 0.392105
vt 0.080677 0.570345
vt 0.089621 0.599439
vt 0.692374 0.809602
vt 0.320386 0.411909
vt 0.177542 0.664092
vt 0.578508 0.809602
vt 0.338715 0.425921
vt 0.196913 0.687577
vt 0.464642 0.992977
vt 0.350776 0.992977
vt 0.236910 0.992977
vt 0.123044 0.992978
vt 0.991481 0.007893
vt 0.009178 0.992978
vt 0.991481 0.106267
vt 0.991480 0.204640
vt 0.991480 0.303013
vt 0.991479 0.401387
vt 0.991479 0.499760
vt 0.991479 0.598133
vt 0.991479 0.696507
vt 0.991479 0.794880
vt 0.920106 0.992977
vt 0.806240 0.992977
vt 0.692374 0.992977
vt 0.578508 0.992977
vt 0.331924 0.572808
vt 0.345348 0.579966
vt 0.316328 0.720756
vt 0.407709 0.809602
vt 0.372330 0.430643
vt 0.410659 0.570303
vt 0.383677 0.719627
vt 0.425784 0.571797
vt 0.452727 0.712834
vt 0.293843 0.809603
vt 0.393631 0.423664
vt 0.482330 0.537900
vt 0.514482 0.686033
vt 0.496867 0.533505
vt 0.575651 0.653343
vt 0.179977 0.809603
vt 0.410470 0.409071
vt 0.536044 0.480539
vt 0.622441 0.604974
vt 0.547793 0.470917
vt 0.666442 0.551377
vt 0.066110 0.809603
vt 0.420250 0.389092
vt 0.563621 0.406962
vt 0.691163 0.488787
vt 0.570791 0.393566
vt 0.711305 0.422424
vt 0.723754 0.057080
vt 0.421478 0.366800
vt 0.560893 0.328357
vt 0.710205 0.355123
vt 0.562390 0.313223
vt 0.703432 0.286084
vt 0.723754 0.155453
vt 0.414005 0.345596
vt 0.528278 0.256674
vt 0.676662 0.224300
vt 0.523869 0.242107
vt 0.643986 0.163084
vt 0.723753 0.253827
vt 0.398990 0.328700
vt 0.470721 0.202824
vt 0.595600 0.116232
vt 0.461074 0.191050
vt 0.541976 0.072172
vt 0.723753 0.352200
vt 0.378703 0.318663
vt 0.396971 0.175014
vt 0.479342 0.047401
vt 0.383562 0.167832
vt 0.412946 0.027223
vt 0.723753 0.450573
vt 0.356206 0.317003
vt 0.318262 0.177478
vt 0.345618 0.028306
vt 0.303140 0.175983
vt 0.276577 0.035077
vt 0.723753 0.548947
vt 0.334916 0.323982
vt 0.246581 0.209831
vt 0.214805 0.061831
vt 0.232054 0.214249
vt 0.153628 0.094499
vt 0.723753 0.647320
vt 0.318089 0.338564
vt 0.192827 0.267162
vt 0.106793 0.142847
vt 0.181113 0.276820
vt 0.062770 0.196434
vt 0.723753 0.745693
vt 0.308317 0.358527
vt 0.165205 0.340747
vt 0.038002 0.259040
vt 0.158094 0.354171
vt 0.017837 0.325411
vt 0.863173 0.809602
vt 0.307087 0.380806
vt 0.167908 0.419393
vt 0.018915 0.392758
vt 0.166481 0.434532
vt 0.025677 0.461820
vt 0.749307 0.809602
vt 0.314549 0.402007
vt 0.200532 0.491127
vt 0.052464 0.523652
vt 0.205004 0.505674
vt 0.085149 0.584892
vt 0.635441 0.809602
vt 0.329550 0.418915
vt 0.258129 0.545006
vt 0.133582 0.631765
vt 0.267814 0.556749
vt 0.187228 0.675834
vt 0.521575 0.809602
vt 0.349830 0.428970
vt 0.249909 0.700587
vt 0.299869 0.564778
vt 0.231566 0.525340
vt 0.183506 0.462830
vt 0.163001 0.386782
vt 0.173159 0.308783
vt 0.212441 0.240705
vt 0.274860 0.192907
vt 0.350912 0.172655
vt 0.429023 0.183032
vt 0.497295 0.222466
vt 0.545334 0.284948
vt 0.565842 0.360962
vt 0.555707 0.438940
vt 0.516456 0.507022
vt 0.454057 0.554848
vt 0.378003 0.575135
s 1
usemtl LEATHER
f 1/1/1 65/85/2 67/87/3
f 160/196/4 68/89/5 5/7/6 69/90/7
f 4/5/8 69/90/7 72/93/9
f 159/195/10 73/95/11 9/12/12 74/96/13
f 7/9/14 74/96/13 77/99/15
f 158/194/16 78/101/17 11/15/18 79/102/19
f 10/13/20 79/102/19 82/105/21
f 157/193/22 83/107/23 14/20/24 84/108/25
f 13/17/26 84/108/25 87/111/27
f 156/192/28 88/113/29 17/24/30 89/114/31
f 16/22/32 89/114/31 92/117/33
f 155/191/34 93/119/35 20/28/36 94/120/37
f 19/26/38 94/120/37 97/123/39
f 154/190/40 98/125/41 23/32/42 99/126/43
f 22/30/44 99/126/43 102/129/45
f 153/189/46 103/131/47 27/37/48 104/132/49
f 25/34/50 104/132/49 107/135/51
f 152/188/52 108/137/53 30/41/54 109/138/55
f 28/38/56 109/138/55 112/141/57
f 151/187/58 113/143/59 33/45/60 114/144/61
f 31/42/62 114/144/61 117/147/63
f 150/186/64 118/149/65 36/49/66 119/150/67
f 34/46/68 119/150/67 122/153/69
f 149/185/70 123/155/71 39/54/72 124/156/73
f 37/50/74 124/156/73 127/159/75
f 148/184/76 128/161/77 42/58/78 129/162/79
f 40/55/80 129/162/79 132/165/81
f 147/183/82 133/167/83 45/62/84 134/168/85
f 43/59/86 134/168/85 137/171/87
f 146/182/88 138/173/89 47/65/90 139/174/91
f 46/63/92 139/174/91 142/177/93
f 145/181/94 143/179/95 3/4/96 65/85/2
f 27/36/48 103/130/47 23/31/42 56/75/97 57/76/98
f 3/3/96 143/178/95 47/64/90 64/84/99 49/67/100
f 39/52/72 123/154/71 36/48/66 60/79/101 61/80/102
f 17/23/30 88/112/29 14/18/24 53/71/103 54/73/104
f 30/40/54 108/136/53 27/36/48 57/76/98 58/77/105
f 42/57/78 128/160/77 39/53/72 61/81/102 62/82/106
f 20/27/36 93/118/35 17/23/30 54/73/104 55/74/107
f 9/11/12 73/94/11 5/6/6 50/68/108 51/69/109
f 33/44/60 113/142/59 30/40/54 58/77/105 59/78/110
f 45/61/84 133/166/83 42/57/78 62/82/106 63/83/111
f 11/14/18 78/100/17 9/11/12 51/69/109 52/70/112
f 47/64/90 138/172/89 45/61/84 63/83/111 64/84/99
f 23/31/42 98/124/41 20/27/36 55/74/107 56/75/97
f 5/6/6 68/88/5 3/3/96 49/67/100 50/68/108
f 36/48/66 118/148/65 33/44/60 59/78/110 60/79/101
f 14/19/24 83/106/23 11/14/18 52/70/112 53/72/103
f 144/180/113 145/181/94 65/85/2 1/1/1
f 48/66/114 141/176/115 145/181/94 144/180/113
f 141/176/115 47/65/90 143/179/95 145/181/94
f 142/177/93 141/176/115 48/66/114
f 142/177/93 139/174/91 141/176/115
f 139/174/91 47/65/90 141/176/115
f 140/175/116 146/182/88 139/174/91 46/63/92
f 44/60/117 136/170/118 146/182/88 140/175/116
f 136/170/118 45/62/84 138/173/89 146/182/88
f 137/171/87 136/170/118 44/60/117
f 137/171/87 134/168/85 136/170/118
f 134/168/85 45/62/84 136/170/118
f 135/169/119 147/183/82 134/168/85 43/59/86
f 41/56/120 131/164/121 147/183/82 135/169/119
f 131/164/121 42/58/78 133/167/83 147/183/82
f 132/165/81 131/164/121 41/56/120
f 132/165/81 129/162/79 131/164/121
f 129/162/79 42/58/78 131/164/121
f 130/163/122 148/184/76 129/162/79 40/55/80
f 38/51/123 126/158/124 148/184/76 130/163/122
f 126/158/124 39/54/72 128/161/77 148/184/76
f 127/159/75 126/158/124 38/51/123
f 127/159/75 124/156/73 126/158/124
f 124/156/73 39/54/72 126/158/124
f 125/157/125 149/185/70 124/156/73 37/50/74
f 35/47/126 121/152/127 149/185/70 125/157/125
f 121/152/127 36/49/66 123/155/71 149/185/70
f 122/153/69 121/152/127 35/47/126
f 122/153/69 119/150/67 121/152/127
f 119/150/67 36/49/66 121/152/127
f 120/151/128 150/186/64 119/150/67 34/46/68
f 32/43/129 116/146/130 150/186/64 120/151/128
f 116/146/130 33/45/60 118/149/65 150/186/64
f 117/147/63 116/146/130 32/43/129
f 117/147/63 114/144/61 116/146/130
f 114/144/61 33/45/60 116/146/130
f 115/145/131 151/187/58 114/144/61 31/42/62
f 29/39/132 111/140/133 151/187/58 115/145/131
f 111/140/133 30/41/54 113/143/59 151/187/58
f 112/141/57 111/140/133 29/39/132
f 112/141/57 109/138/55 111/140/133
f 109/138/55 30/41/54 111/140/133
f 110/139/134 152/188/52 109/138/55 28/38/56
f 26/35/135 106/134/136 152/188/52 110/139/134
f 106/134/136 27/37/48 108/137/53 152/188/52
f 107/135/51 106/134/136 26/35/135
f 107/135/51 104/132/49 106/134/136
f 104/132/49 27/37/48 106/134/136
f 105/133/137 153/189/46 104/132/49 25/34/50
f 24/33/138 101/128/139 153/189/46 105/133/137
f 101/128/139 23/32/42 103/131/47 153/189/46
f 102/129/45 101/128/139 24/33/138
f 102/129/45 99/126/43 101/128/139
f 99/126/43 23/32/42 101/128/139
f 100/127/140 154/190/40 99/126/43 22/30/44
f 21/29/141 96/122/142 154/190/40 100/127/140
f 96/122/142 20/28/36 98/125/41 154/190/40
f 97/123/39 96/122/142 21/29/141
f 97/123/39 94/120/37 96/122/142
f 94/120/37 20/28/36 96/122/142
f 95/121/143 155/191/34 94/120/37 19/26/38
f 18/25/144 91/116/145 155/191/34 95/121/143
f 91/116/145 17/24/30 93/119/35 155/191/34
f 92/117/33 91/116/145 18/25/144
f 92/117/33 89/114/31 91/116/145
f 89/114/31 17/24/30 91/116/145
f 90/115/146 156/192/28 89/114/31 16/22/32
f 15/21/147 86/110/148 156/192/28 90/115/146
f 86/110/148 14/20/24 88/113/29 156/192/28
f 87/111/27 86/110/148 15/21/147
f 87/111/27 84/108/25 86/110/148
f 84/108/25 14/20/24 86/110/148
f 85/109/149 157/193/22 84/108/25 13/17/26
f 12/16/150 81/104/151 157/193/22 85/109/149
f 81/104/151 11/15/18 83/107/23 157/193/22
f 82/105/21 81/104/151 12/16/150
f 82/105/21 79/102/19 81/104/151
f 79/102/19 11/15/18 81/104/151
f 80/103/152 158/194/16 79/102/19 10/13/20
f 8/10/153 76/98/154 158/194/16 80/103/152
f 76/98/154 9/12/12 78/101/17 158/194/16
f 77/99/15 76/98/154 8/10/153
f 77/99/15 74/96/13 76/98/154
f 74/96/13 9/12/12 76/98/154
f 75/97/155 159/195/10 74/96/13 7/9/14
f 6/8/156 71/92/157 159/195/10 75/97/155
f 71/92/157 5/7/6 73/95/11 159/195/10
f 72/93/9 71/92/157 6/8/156
f 72/93/9 69/90/7 71/92/157
f 69/90/7 5/7/6 71/92/157
f 70/91/158 160/196/4 69/90/7 4/5/8
f 2/2/159 66/86/160 160/196/4 70/91/158
f 66/86/160 3/4/96 68/89/5 160/196/4
f 67/87/3 66/86/160 2/2/159
f 67/87/3 65/85/2 66/86/160
f 65/85/2 3/4/96 66/86/160
